<svg xmlns="http://www.w3.org/2000/svg" xmlns:xlink="http://www.w3.org/1999/xlink" width="24" height="24" viewBox="0 0 24 24"><defs><style>.a,.c{fill:none;}.b{clip-path:url(#a);}.c{opacity:0.338;}.d{fill:#784794;}</style><clipPath id="a"><rect class="a" width="24" height="24"/></clipPath></defs><g class="b"><rect class="c" width="24" height="24"/><path class="d" d="M12.1,15.012h0a.871.871,0,0,0,.557-.318L23.719,1.56a.872.872,0,0,0-.04-1.313.882.882,0,0,0-1.313.2L12.018,12.783,1.631.406A.912.912,0,0,0,.317.207.872.872,0,0,0,.277,1.52L11.341,14.654A.752.752,0,0,0,12.1,15.012Z" transform="translate(4.987 23.998) rotate(-90)"/></g></svg>